<svg width="84" height="84" viewBox="0 0 84 84" fill="none" xmlns="http://www.w3.org/2000/svg">
<path fill-rule="evenodd" clip-rule="evenodd" d="M41.9999 83.6666C65.0124 83.6666 83.6666 65.0124 83.6666 41.9999C83.6666 18.9874 65.0124 0.333252 41.9999
 0.333252C18.9874 0.333252 0.333252 18.9874 0.333252 41.9999C0.333252 65.0124 18.9874 83.6666 41.9999 83.6666ZM50.4582 27.2916C51.0435 27.8775 
 51.3722 28.6718 51.3722 29.4999C51.3722 30.328 51.0435 31.1223 50.4582 31.7083L40.1666 41.9999L50.4582 52.2916C50.7653 52.5777 51.0115 52.9227
   51.1823 53.306C51.3531 53.6893 51.445 54.1031 51.4524 54.5227C51.4598 54.9423 51.3826 55.3591 51.2254 55.7482C51.0683 56.1374 50.8343 56.4908 
   50.5376 56.7876C50.2408 57.0843 49.8874 57.3183 49.4982 57.4754C49.1091 57.6326 48.6923 57.7098 48.2727 57.7024C47.8531 57.695 47.4393 57.6031 
   47.056 57.4323C46.6727 57.2615 46.3277 57.0153 46.0416 56.7082L33.5416 44.2083C32.9564 43.6223 32.6277 42.828 32.6277 41.9999C32.6277 41.1718 
   32.9564 40.3775 33.5416 39.7916L46.0416 27.2916C46.6275 26.7064 47.4218 26.3777 48.2499 26.3777C49.078 26.3777 49.8723 26.7064 50.4582 
   27.2916Z" fill="#666"/>
<!-- <defs>
<linearGradient id="paint0_linear_1_72" x1="0.333252" y1="18.5765" x2="50.383" y2="18.9975" gradientUnits="userSpaceOnUse">
<stop stop-color="#AB5BFB"/>
<stop offset="1" stop-color="#7690EA"/>
</linearGradient>
</defs> -->
</svg>
